<?xml version="1.0" encoding="utf-8"?>
<!-- Generator: Adobe Illustrator 25.2.0, SVG Export Plug-In . SVG Version: 6.00 Build 0)  -->
<svg version="1.1" id="Calque_1" xmlns="http://www.w3.org/2000/svg" xmlns:xlink="http://www.w3.org/1999/xlink" x="0px" y="0px"
	 viewBox="0 0 1388.7 390.8" style="enable-background:new 0 0 1388.7 390.8;" xml:space="preserve">
<style type="text/css">
	.st0{fill:none;}
	.st1{fill:#FFFFFF;}
</style>
<g id="Calque_2_1_">
	<g id="Calque_1-2">
		<polygon class="st0" points="1357,0 883.2,0 0,0 0,390.8 883.2,390.8 1357,390.8 1388.7,390.8 1388.7,0 		"/>
		<path class="st1" d="M151.9,195.7c0,29.6,22.1,51,50.2,51c16.6,0.1,32.3-7.3,42.9-20h2.9l25,20.8v2.9c-15.9,19.5-40.6,33-71.2,33
			c-51.2,0-91.3-37.4-91.3-87.6s40-87.6,91.8-87.6c29.1,0,54.6,13,70.7,33v2.9l-25,20.8H245c-10.6-12.7-26.3-20.1-42.9-20
			C174,144.7,151.9,166.1,151.9,195.7z"/>
		<path class="st1" d="M422.8,215.2c0,39.3-29.9,68.1-73.1,68.1c-43.4,0-73.1-28.9-73.1-68.1s29.6-68.1,73.1-68.1
			C392.9,147.1,422.8,175.9,422.8,215.2z M382,215.2c0-19.8-13.3-33.8-32.2-33.8s-32.2,14-32.2,33.8s13.3,33.8,32.2,33.8
			S382,234.9,382,215.2L382,215.2z"/>
		<path class="st1" d="M575.7,275l-1.6,2.9c-6,3.6-13,5.5-20,5.5c-11.7,0-21.3-4.9-26.8-14.8c-10.9,9.1-25.7,14.8-42.9,14.8
			c-28.3,0-52.8-15.6-52.8-42.6c0-28.3,26.5-41.6,58.5-41.6c10-0.1,19.9,1.5,29.4,4.7V198c0-14-12.5-22.4-28.3-22.4
			c-11.5,0-22.6,4.5-30.9,12.5h-2.9l-18-17.1v-2.9c13.8-13,32.5-21.1,56.2-21.1c30.2,0,62.9,13.5,62.9,50.4v41.1c0,6,1.8,9.6,6,9.6
			c1.4,0,2.8-0.4,3.9-1.3l2.3,1.3L575.7,275z M519.5,235.7v-8.8c-7.4-2.8-15.2-4.3-23.1-4.4c-16.1,0-25.2,7.3-25.2,17.9
			c0,11.2,10.7,17.4,22.1,17.4C507.8,257.8,519.5,247.9,519.5,235.7L519.5,235.7z"/>
		<path class="st1" d="M576.5,215.2c0-39.2,30.4-68.1,71.8-68.1c23.9,0,42.1,9.9,53.8,22.9v2.9l-22.4,20.6h-3.1
			c-6.7-7.8-16.5-12.2-26.8-12c-19.2,0-32.5,14-32.5,33.8S630,249,650,249c10.4,0,20-3.9,26.5-12h3.1l22.4,20.6v2.9
			c-11.7,13-29.9,22.9-53.8,22.9C606.9,283.3,576.5,254.4,576.5,215.2z"/>
		<path class="st1" d="M841.1,203.2v77h-40v-74.1c0-14.6-8.6-25-23.9-25c-15.1,0-24.4,10.4-24.4,25v74.1H713V107.8l36.9-4.7l2.9,1.8
			v51.7c8.8-6,19.8-9.6,33.3-9.6C819.5,147.1,841.1,169.7,841.1,203.2z"/>
		<path class="st1" d="M972.6,280.2H861.8v-169h40.6v135.7h70.2V280.2z"/>
		<path class="st1" d="M1126.2,275l-1.6,2.9c-6,3.6-13,5.5-20,5.5c-11.7,0-21.3-4.9-26.8-14.8c-10.9,9.1-25.7,14.8-42.9,14.8
			c-28.3,0-52.8-15.6-52.8-42.6c0-28.3,26.5-41.6,58.5-41.6c10-0.1,19.9,1.5,29.4,4.7V198c0-14-12.5-22.4-28.3-22.4
			c-11.5,0-22.6,4.5-30.9,12.5h-2.8L990,171v-2.9c13.8-13,32.5-21.1,56.2-21.1c30.2,0,62.9,13.5,62.9,50.4v41.1c0,6,1.8,9.6,6,9.6
			c1.4,0,2.8-0.4,3.9-1.3l2.3,1.3L1126.2,275z M1070.1,235.7v-8.8c-7.4-2.8-15.2-4.3-23.1-4.4c-16.1,0-25.2,7.3-25.2,17.9
			c0,11.2,10.7,17.4,22.1,17.4C1058.4,257.8,1070.1,247.9,1070.1,235.7L1070.1,235.7z"/>
		<path class="st1" d="M1277.6,215.2c0,38.2-27,68.1-65.3,68.1c-16.2,0.1-31.8-6.2-43.4-17.4v14.3h-34.1V108.1l37.2-4.9l3.1,1.8
			v54.3c10.8-8,23.8-12.2,37.2-12.2C1250.8,147.1,1277.6,177,1277.6,215.2z M1236.8,215.2c-0.3-19.2-12.7-33.8-31.7-33.8
			c-18.2,0-31.7,12.5-31.7,33.8s13.5,33.8,31.7,33.8C1224,249,1236.8,234.4,1236.8,215.2z"/>
	</g>
</g>
</svg>
