<svg xmlns="http://www.w3.org/2000/svg" viewBox="0 0 1158.28 180.18"><defs><style>.cls-1{fill:#fff;}</style></defs><g id="Calque_2" data-name="Calque 2"><g id="Calque_1-2" data-name="Calque 1"><path class="cls-1" d="M41.6,92.56c0,29.64,22.1,51,50.18,51a55.45,55.45,0,0,0,42.9-20h2.86l25,20.8v2.86c-15.86,19.5-40.56,33-71.24,33C40,180.18,0,142.74,0,92.56S40,4.94,91.78,4.94c29.12,0,54.6,13,70.72,33v2.86l-25,20.8h-2.86a55.45,55.45,0,0,0-42.9-20C63.7,41.6,41.6,62.92,41.6,92.56Z"/><path class="cls-1" d="M312.51,112.06c0,39.26-29.89,68.12-73,68.12-43.42,0-73.06-28.86-73.06-68.12S196,43.94,239.46,43.94C282.62,43.94,312.51,72.8,312.51,112.06Zm-40.81,0c0-19.76-13.26-33.8-32.24-33.8s-32.24,14-32.24,33.8,13.26,33.8,32.24,33.8S271.7,131.82,271.7,112.06Z"/><path class="cls-1" d="M465.39,171.86l-1.56,2.86a38.35,38.35,0,0,1-20,5.46c-11.7,0-21.32-4.94-26.78-14.82-10.92,9.1-25.74,14.82-42.9,14.82-28.34,0-52.78-15.6-52.78-42.64,0-28.34,26.52-41.6,58.5-41.6a88.08,88.08,0,0,1,29.38,4.68V94.9c0-14-12.48-22.36-28.34-22.36A44.52,44.52,0,0,0,350,85h-2.86L329.15,67.86V65c13.78-13,32.5-21.06,56.16-21.06,30.16,0,62.92,13.52,62.92,50.44v41.08c0,6,1.82,9.62,6,9.62a6.39,6.39,0,0,0,3.9-1.3l2.34,1.3ZM409.23,132.6v-8.84a68.64,68.64,0,0,0-23.14-4.42c-16.12,0-25.22,7.28-25.22,17.94,0,11.18,10.66,17.42,22.1,17.42C397.53,154.7,409.23,144.82,409.23,132.6Z"/><path class="cls-1" d="M466.17,112.06c0-39.26,30.42-68.12,71.76-68.12,23.92,0,42.12,9.88,53.82,22.88v2.86L569.39,90.22h-3.12a34.62,34.62,0,0,0-26.78-12c-19.24,0-32.5,14-32.5,33.8s12.74,33.8,32.76,33.8c10.4,0,20-3.9,26.52-12h3.12l22.36,20.54v2.86c-11.7,13-29.9,22.88-53.82,22.88C496.59,180.18,466.17,151.32,466.17,112.06Z"/><path class="cls-1" d="M730.85,100.1v77h-40V103c0-14.56-8.58-25-23.92-25-15.08,0-24.44,10.4-24.44,25v74.1H602.67V4.68L639.59,0l2.86,1.82V53.56c8.84-6,19.76-9.62,33.28-9.62C709.27,43.94,730.85,66.56,730.85,100.1Z"/><path class="cls-1" d="M853.31,177.06H742.55V8.06h40.56V143.78h70.2Z"/><path class="cls-1" d="M1007,171.86l-1.56,2.86a38.35,38.35,0,0,1-20,5.46c-11.7,0-21.32-4.94-26.78-14.82-10.92,9.1-25.74,14.82-42.9,14.82-28.33,0-52.77-15.6-52.77-42.64,0-28.34,26.52-41.6,58.49-41.6a88.08,88.08,0,0,1,29.38,4.68V94.9c0-14-12.48-22.36-28.34-22.36A44.5,44.5,0,0,0,891.53,85h-2.86L870.73,67.86V65c13.77-13,32.49-21.06,56.15-21.06,30.16,0,62.92,13.52,62.92,50.44v41.08c0,6,1.82,9.62,6,9.62a6.39,6.39,0,0,0,3.9-1.3l2.34,1.3ZM950.8,132.6v-8.84a68.64,68.64,0,0,0-23.14-4.42c-16.12,0-25.22,7.28-25.22,17.94,0,11.18,10.66,17.42,22.1,17.42C939.1,154.7,950.8,144.82,950.8,132.6Z"/><path class="cls-1" d="M1158.28,112.06c0,38.22-27,68.12-65.26,68.12a62,62,0,0,1-43.42-17.42v14.3h-34.06V4.94L1052.72,0l3.12,1.82V56.16A62.45,62.45,0,0,1,1093,43.94C1131.5,43.94,1158.28,73.84,1158.28,112.06Zm-40.82,0c-.26-19.24-12.74-33.8-31.72-33.8-18.2,0-31.72,12.48-31.72,33.8s13.52,33.8,31.72,33.8C1104.72,145.86,1117.46,131.3,1117.46,112.06Z"/></g></g></svg>