<svg xmlns="http://www.w3.org/2000/svg" xmlns:xlink="http://www.w3.org/1999/xlink" viewBox="0 0 1273.33 356.35"><defs><style>.cls-1{fill:url(#Dégradé_sans_nom_9);}.cls-2{fill:#fff;}</style><linearGradient id="Dégradé_sans_nom_9" y1="178.17" x2="1273.33" y2="178.17" gradientUnits="userSpaceOnUse"><stop offset="0" stop-color="#318ce7"/><stop offset="0.38" stop-color="#3c84d5"/><stop offset="1" stop-color="#5472ae"/></linearGradient></defs><g id="Calque_2" data-name="Calque 2"><g id="Calque_1-2" data-name="Calque 1"><polygon class="cls-1" points="1244.31 0 809.8 0 0 0 0 356.35 809.8 356.35 1244.31 356.35 1273.33 356.35 1273.33 0 1244.31 0"/><path class="cls-2" d="M182.05,255.57c-43.33,0-78.6-33.86-78.6-77.59s34.86-77.19,78.19-77.19c27,0,50.79,12.49,65.7,35.07a63.25,63.25,0,0,1,10.08,24.38h-39.9c-5.85-15.32-19.35-26-36.08-26-24.18,0-39.9,20.56-39.9,43.53s15.72,44.34,40.1,44.34c16.73,0,29.23-10.48,35.88-25.19h39.9C248.75,232.19,218.12,255.57,182.05,255.57Z"/><path class="cls-2" d="M330.78,256.17c-34.27,0-60.26-25.19-60.26-59.45s26-59.45,60.26-59.45S391,162.46,391,196.72,365,256.17,330.78,256.17Zm0-87.67c-15.52,0-26.81,13.1-26.81,28.22s11.29,28.21,26.81,28.21,26.8-13.1,26.8-28.21S346.29,168.5,330.78,168.5Z"/><path class="cls-2" d="M494,252.74V240.65h-.4c-6,11.49-20.55,15.92-32.65,15.92-34.46,0-56.23-26.6-56.23-59.85,0-32.65,22.58-59.66,56.23-59.66,12.3,0,26,4.64,32.65,15.72h.4V140.89h33.46V252.74ZM465.8,168.3c-16.32,0-27.61,12.9-27.61,28.82,0,15.52,12.09,28.22,27.81,28.22,16.33,0,28-12.5,28-28.62C494,180.39,482.12,168.3,465.8,168.3Z"/><path class="cls-2" d="M606.27,256.37a59.35,59.35,0,0,1-59.86-59.85c0-33.05,25.8-59.46,59.05-59.46,28.62,0,53.41,18.55,59.25,47H630.86c-4.84-10.48-13.51-15.72-25-15.72-16.12,0-25.79,13.3-25.79,28.42,0,15.72,10.28,28.42,26.6,28.42,11.09,0,19.15-5.24,24.19-14.92h34C658.47,237.63,634.48,256.37,606.27,256.37Z"/><path class="cls-2" d="M750.36,252.74V191.88c0-12.09-3.42-23.38-17.93-23.38s-18.75,9.48-18.75,22.17v62.07H680.23V103.61h33.45v47.56h.41c5.84-10.48,17.53-14.11,28.82-14.11,10.88,0,23.17,3.83,30.43,12.3C784,161.65,783.82,175,783.82,190.27v62.47Z"/><path class="cls-2" d="M810,252.74V103.61H848.1V219.29h44.14v33.45Z"/><path class="cls-2" d="M989.78,252.74V240.65h-.4c-6,11.49-20.56,15.92-32.65,15.92-34.46,0-56.23-26.6-56.23-59.85,0-32.65,22.57-59.66,56.23-59.66,12.29,0,26,4.64,32.65,15.72h.4V140.89h33.46V252.74ZM961.57,168.3c-16.33,0-27.61,12.9-27.61,28.82,0,15.52,12.09,28.22,27.81,28.22,16.32,0,28-12.5,28-28.62C989.78,180.39,977.89,168.3,961.57,168.3Z"/><path class="cls-2" d="M1113.12,256.57c-11.49,0-26.2-4.83-32-15.72h-.4v11.89h-32V103.61h33.45v46.15c8.67-9.27,20-12.7,32.45-12.7a56.8,56.8,0,0,1,23.58,5.45c21.56,10.07,31.44,30.43,31.44,53.6C1169.55,229.77,1148,256.57,1113.12,256.57Zm-4.44-88.27c-15.92,0-27.81,12.5-27.81,28.22,0,15.92,10.89,28.82,27.21,28.82,16.12,0,28-12.7,28-28.62C1136.09,181.4,1124.4,168.3,1108.68,168.3Z"/></g></g></svg>