<svg xmlns="http://www.w3.org/2000/svg" viewBox="0 0 489.91 307.64"><defs><style>.cls-1{fill:#fff;}</style></defs><g id="Calque_2" data-name="Calque 2"><g id="Calque_2-2" data-name="Calque 2"><path class="cls-1" d="M296.84,307.64H72a72.07,72.07,0,0,1-72-72V72A72.06,72.06,0,0,1,72,0H296.84a72.06,72.06,0,0,1,72,72V235.65A72.07,72.07,0,0,1,296.84,307.64ZM72,15A57,57,0,0,0,15,72V235.65a57.05,57.05,0,0,0,57,57H296.84a57.05,57.05,0,0,0,57-57V72a57,57,0,0,0-57-57Z"/><path class="cls-1" d="M458.32,247.78A29.58,29.58,0,0,1,448,245.89l-94.09-35V96.74l94.09-35a29.48,29.48,0,0,1,27.43,3.56,34.79,34.79,0,0,1,14.53,28.75V213.59a34.77,34.77,0,0,1-14.53,28.74A29.72,29.72,0,0,1,458.32,247.78Zm-5.14-15.95A14.47,14.47,0,0,0,466.82,230a19.82,19.82,0,0,0,8.09-16.43V94.05a19.82,19.82,0,0,0-8.09-16.43,14.5,14.5,0,0,0-13.64-1.82l-84.32,31.36v93.31Z"/><path class="cls-1" d="M153.72,217.12a19.26,19.26,0,0,1-9.63-2.61,19.07,19.07,0,0,1-9.63-16.68v-88a19.27,19.27,0,0,1,28.9-16.68l76.23,44a19.26,19.26,0,0,1,0,33.36l-76.23,44A19.27,19.27,0,0,1,153.72,217.12Zm0-111.59a4.46,4.46,0,0,0-2.16.58,4.19,4.19,0,0,0-2.13,3.69v88a4.27,4.27,0,0,0,6.4,3.69l76.23-44a4.26,4.26,0,0,0,0-7.38l-76.23-44A4.24,4.24,0,0,0,153.75,105.53Z"/></g></g></svg>