<svg xmlns="http://www.w3.org/2000/svg" viewBox="0 0 455 455"><defs><style>.cls-1{fill:#fff;fill-rule:evenodd;}</style></defs><g id="Calque_2" data-name="Calque 2"><g id="Layer_1" data-name="Layer 1"><path class="cls-1" d="M246.4,204.35v-.66c-.14.22-.32.44-.44.66Z"/><path class="cls-1" d="M0,70.08V384.92A70.09,70.09,0,0,0,70.08,455H384.92A70.09,70.09,0,0,0,455,384.92V70.08A70.09,70.09,0,0,0,384.92,0H70.08A70.09,70.09,0,0,0,0,70.08ZM141.52,378H74V174.91h67.5ZM107.77,147.19h-.45c-22.64,0-37.32-15.6-37.32-35.11C70,92.16,85.11,77,108.21,77S145.52,92.16,146,112.09C146,131.59,131.32,147.19,107.77,147.19ZM385,378H317.48V269.35c0-27.3-9.76-45.92-34.2-45.92-18.66,0-29.75,12.54-34.64,24.69-1.78,4.34-2.24,10.37-2.24,16.46V378H178.86s.91-184,0-203.09H246.4v28.78c9-13.81,25-33.55,60.86-33.55,44.43,0,77.74,29,77.74,91.4Z"/></g></g></svg>