<svg xmlns="http://www.w3.org/2000/svg" viewBox="0 0 2856.05 799.28"><defs><style>.cls-1{fill:#fff;}.cls-2{fill:#318ce7;}.cls-3{fill:#5472ae;}</style></defs><g id="Calque_2" data-name="Calque 2"><g id="Calque_1-2" data-name="Calque 1"><polygon class="cls-1" points="2790.95 0 1816.36 0 0 0 0 799.28 1816.36 799.28 2790.95 799.28 2856.05 799.28 2856.05 0 2790.95 0"/><path class="cls-2" d="M407.91,573.23c-97.19,0-176.29-75.94-176.29-174S309.82,226.06,407,226.06c60.57,0,113.91,28,147.36,78.66C565.22,321,573.81,340,577,359.42H487.47c-13.11-34.36-43.39-58.32-80.91-58.32-54.25,0-89.51,46.11-89.51,97.64s35.26,99.45,90,99.45c37.52,0,65.54-23.5,80.46-56.5H577C557.54,520.8,488.83,573.23,407.91,573.23Z"/><path class="cls-2" d="M741.51,574.59c-76.85,0-135.16-56.51-135.16-133.35s58.31-133.36,135.16-133.36,135.16,56.51,135.16,133.36S818.35,574.59,741.51,574.59Zm0-196.64c-34.81,0-60.12,29.38-60.12,63.29s25.31,63.28,60.12,63.28,60.12-29.38,60.12-63.28S776.32,378,741.51,378Z"/><path class="cls-2" d="M1107.65,566.9V539.78h-.9c-13.56,25.77-46.11,35.71-73.23,35.71-77.3,0-126.12-59.67-126.12-134.25,0-73.23,50.63-133.81,126.12-133.81,27.57,0,58.31,10.4,73.23,35.26h.9V316h75V566.9Zm-63.28-189.4c-36.62,0-61.93,28.93-61.93,64.64,0,34.81,27.12,63.28,62.38,63.28,36.61,0,62.83-28,62.83-64.18C1107.65,404.62,1081,377.5,1044.37,377.5Z"/><path class="cls-2" d="M1359.43,575c-75,0-134.25-59.22-134.25-134.26,0-74.13,57.86-133.35,132.45-133.35,64.19,0,119.78,41.59,132.89,105.33h-75.94c-10.85-23.51-30.29-35.26-56-35.26-36.16,0-57.86,29.83-57.86,63.74,0,35.25,23,63.73,59.67,63.73,24.86,0,42.94-11.75,54.24-33.45H1491C1476.51,533,1422.72,575,1359.43,575Z"/><path class="cls-2" d="M1682.64,566.9V430.39c0-27.13-7.69-52.44-40.23-52.44s-42,21.25-42,49.73V566.9h-75V232.39h75V339.08h.9c13.11-23.51,39.33-31.65,64.64-31.65,24.41,0,52,8.59,68.26,27.58,24,27.57,23.5,57.41,23.5,91.76V566.9Z"/><path class="cls-3" d="M1816.43,566.9V232.39h85.44V491.86h99v75Z"/><path class="cls-3" d="M2219.65,566.9V539.78h-.9c-13.57,25.77-46.11,35.71-73.24,35.71-77.29,0-126.11-59.67-126.11-134.25,0-73.23,50.62-133.81,126.11-133.81,27.58,0,58.32,10.4,73.24,35.26h.9V316h75V566.9Zm-63.29-189.4c-36.61,0-61.93,28.93-61.93,64.64,0,34.81,27.13,63.28,62.39,63.28,36.61,0,62.83-28,62.83-64.18C2219.65,404.62,2193,377.5,2156.36,377.5Z"/><path class="cls-3" d="M2496.29,575.49c-25.77,0-58.77-10.85-71.88-35.26h-.9V566.9h-71.87V232.39h75V335.91c19.44-20.79,44.75-28.48,72.78-28.48,18.08,0,36.16,4.52,52.89,12.21,48.37,22.6,70.52,68.26,70.52,120.24C2622.86,515.37,2574.49,575.49,2496.29,575.49Zm-9.95-198c-35.71,0-62.38,28-62.38,63.28,0,35.71,24.41,64.64,61,64.64,36.16,0,62.83-28.47,62.83-64.18C2547.82,406.88,2521.6,377.5,2486.34,377.5Z"/></g></g></svg>