<svg xmlns="http://www.w3.org/2000/svg" viewBox="0 0 1388.69 390.78"><defs><style>.cls-1{fill:none;}.cls-2{fill:#318ce7;}.cls-3{fill:#5472ae;}</style></defs><g id="Calque_2" data-name="Calque 2"><g id="Calque_1-2" data-name="Calque 1"><polygon class="cls-1" points="1357.04 0 883.16 0 0 0 0 390.78 883.16 390.78 1357.04 390.78 1388.69 390.78 1388.69 0 1357.04 0"/><path class="cls-2" d="M151.88,195.68c0,29.64,22.1,51,50.18,51a55.45,55.45,0,0,0,42.9-20h2.86l25,20.8v2.86c-15.86,19.5-40.56,33-71.24,33-51.22,0-91.26-37.44-91.26-87.62s40-87.61,91.78-87.61c29.12,0,54.6,13,70.72,33V144l-25,20.8H245a55.45,55.45,0,0,0-42.9-20C174,144.73,151.88,166.05,151.88,195.68Z"/><path class="cls-2" d="M422.8,215.18c0,39.26-29.9,68.12-73.06,68.12-43.42,0-73.06-28.86-73.06-68.12s29.64-68.11,73.06-68.11C392.9,147.07,422.8,175.93,422.8,215.18Zm-40.82,0c0-19.75-13.26-33.79-32.24-33.79s-32.24,14-32.24,33.79S330.76,249,349.74,249,382,234.94,382,215.18Z"/><path class="cls-2" d="M575.68,275l-1.56,2.86a38.35,38.35,0,0,1-20,5.46c-11.7,0-21.32-4.94-26.78-14.82-10.92,9.1-25.74,14.82-42.9,14.82-28.34,0-52.78-15.6-52.78-42.64,0-28.34,26.52-41.6,58.5-41.6a88.33,88.33,0,0,1,29.38,4.68V198c0-14-12.48-22.35-28.34-22.35a44.56,44.56,0,0,0-30.94,12.47h-2.86L439.44,171v-2.86c13.78-13,32.5-21.06,56.16-21.06,30.16,0,62.92,13.52,62.92,50.43v41.08c0,6,1.82,9.62,6,9.62a6.39,6.39,0,0,0,3.9-1.3l2.34,1.3Zm-56.16-39.26v-8.84a68.64,68.64,0,0,0-23.14-4.42c-16.12,0-25.22,7.28-25.22,17.94,0,11.18,10.66,17.42,22.1,17.42C507.82,257.82,519.52,247.94,519.52,235.72Z"/><path class="cls-2" d="M576.46,215.18c0-39.25,30.42-68.11,71.76-68.11,23.91,0,42.11,9.88,53.81,22.88v2.85l-22.36,20.55h-3.12a34.56,34.56,0,0,0-26.77-12c-19.24,0-32.5,14-32.5,33.79S630,249,650,249c10.4,0,20-3.9,26.51-12h3.12L702,257.56v2.86c-11.7,13-29.9,22.88-53.81,22.88C606.88,283.3,576.46,254.44,576.46,215.18Z"/><path class="cls-2" d="M841.13,203.22v77h-40v-74.1c0-14.56-8.58-25-23.92-25-15.08,0-24.44,10.39-24.44,25v74.1H713V107.81l36.92-4.68,2.86,1.82v51.74c8.84-6,19.76-9.62,33.28-9.62C819.55,147.07,841.13,169.68,841.13,203.22Z"/><path class="cls-3" d="M972.59,280.18H861.83v-169h40.56V246.9h70.2Z"/><path class="cls-3" d="M1126.25,275l-1.56,2.86a38.35,38.35,0,0,1-20,5.46c-11.7,0-21.32-4.94-26.78-14.82-10.92,9.1-25.74,14.82-42.9,14.82-28.34,0-52.78-15.6-52.78-42.64,0-28.34,26.52-41.6,58.5-41.6a88.33,88.33,0,0,1,29.38,4.68V198c0-14-12.48-22.35-28.34-22.35a44.56,44.56,0,0,0-30.94,12.47H1008L990,171v-2.86c13.78-13,32.5-21.06,56.16-21.06,30.16,0,62.92,13.52,62.92,50.43v41.08c0,6,1.82,9.62,6,9.62a6.39,6.39,0,0,0,3.9-1.3l2.34,1.3Zm-56.16-39.26v-8.84a68.64,68.64,0,0,0-23.14-4.42c-16.12,0-25.22,7.28-25.22,17.94,0,11.18,10.66,17.42,22.1,17.42C1058.39,257.82,1070.09,247.94,1070.09,235.72Z"/><path class="cls-3" d="M1277.57,215.18c0,38.22-27,68.12-65.26,68.12a62,62,0,0,1-43.42-17.42v14.3h-34.06V108.07l37.18-4.94,3.12,1.82v54.34a62.45,62.45,0,0,1,37.18-12.22C1250.79,147.07,1277.57,177,1277.57,215.18Zm-40.82,0c-.26-19.24-12.74-33.79-31.72-33.79-18.2,0-31.72,12.47-31.72,33.79S1186.83,249,1205,249C1224,249,1236.75,234.42,1236.75,215.18Z"/></g></g></svg>