<svg xmlns="http://www.w3.org/2000/svg" viewBox="0 0 250.56 446.73"><defs><style>.cls-1{fill:#fff;}</style></defs><g id="Calque_2" data-name="Calque 2"><g id="Calque_2-2" data-name="Calque 2"><path class="cls-1" d="M125.28,15A56.83,56.83,0,1,1,68.45,71.83,56.89,56.89,0,0,1,125.28,15m0-15a71.83,71.83,0,1,0,71.83,71.83A71.83,71.83,0,0,0,125.28,0Z"/><path class="cls-1" d="M250.56,446.73h-15V230a50.86,50.86,0,0,0-50.81-50.81H65.81A50.86,50.86,0,0,0,15,230V446.73H0V230a65.88,65.88,0,0,1,65.81-65.81H184.75A65.88,65.88,0,0,1,250.56,230Z"/></g></g></svg>