<svg xmlns="http://www.w3.org/2000/svg" viewBox="0 0 267.8 376.46"><defs><style>.cls-1{fill:#fff;}</style></defs><g id="Calque_2" data-name="Calque 2"><g id="Calque_2-2" data-name="Calque 2"><path class="cls-1" d="M133.9,376.46a18.77,18.77,0,0,1-16.24-9.2L19.05,202.74a133.9,133.9,0,1,1,229.7,0L150.14,367.26A18.77,18.77,0,0,1,133.9,376.46Zm-3.38-16.91a3.95,3.95,0,0,0,6.76,0L235.88,195a118.9,118.9,0,1,0-204,0Z"/><path class="cls-1" d="M133.9,210.33a76,76,0,1,1,76-76A76.09,76.09,0,0,1,133.9,210.33Zm0-137a61,61,0,1,0,61,61A61.07,61.07,0,0,0,133.9,73.32Z"/></g></g></svg>