<svg xmlns="http://www.w3.org/2000/svg" fill="currentColor" viewBox="0 0 538.87 446.73"><g id="Calque_2" data-name="Calque 2"><g id="Calque_2-2" data-name="Calque 2"><path class="cls-1" d="M269.65,15a56.83,56.83,0,1,1-56.83,56.83A56.9,56.9,0,0,1,269.65,15m0-15a71.83,71.83,0,1,0,71.83,71.83A71.83,71.83,0,0,0,269.65,0Z"/><path class="cls-1" d="M394.93,446.73h-15V230a50.86,50.86,0,0,0-50.81-50.81H210.18A50.86,50.86,0,0,0,159.37,230V446.73h-15V230a65.88,65.88,0,0,1,65.81-65.81H329.12A65.88,65.88,0,0,1,394.93,230Z"/><path class="cls-1" d="M441.65,63.56A47.65,47.65,0,1,1,394,111.2a47.69,47.69,0,0,1,47.65-47.64m0-15a62.65,62.65,0,1,0,62.64,62.64,62.64,62.64,0,0,0-62.64-62.64Z"/><path class="cls-1" d="M538.87,408.18h-15V249.11a43.41,43.41,0,0,0-43.35-43.36H419l-7-15h68.56a58.42,58.42,0,0,1,58.35,58.36Z"/><path class="cls-1" d="M97.22,63.56A47.65,47.65,0,1,1,49.58,111.2,47.69,47.69,0,0,1,97.22,63.56m0-15a62.65,62.65,0,1,0,62.65,62.64A62.64,62.64,0,0,0,97.22,48.56Z"/><path class="cls-1" d="M0,408.18H15V249.11a43.41,43.41,0,0,1,43.36-43.36h61.56l7-15H58.36A58.43,58.43,0,0,0,0,249.11Z"/></g></g></svg>